<svg viewBox="0 0 606 606" fill="none" xmlns="http://www.w3.org/2000/svg">
<path opacity="0.05" d="M304.841 100.268C193.306 100.268 102.316 190.603 102.316 301.336C102.316 412.069 190.371 505.317 304.841 505.317C416.377 505.317 507.366 414.983 507.366 304.25C507.366 193.517 416.377 100.268 304.841 100.268Z" fill="url(#paint0_linear_3812_1149)"/>
<path opacity="0.05" d="M302.739 0.00013914C136.014 0.000135496 0.000156038 135.035 0.000152421 300.561C0.000148803 466.087 131.626 605.477 302.739 605.477C469.465 605.477 605.477 470.443 605.477 304.917C605.477 139.391 469.465 0.000142784 302.739 0.00013914Z" fill="url(#paint1_linear_3812_1149)"/>
<path opacity="0.79" fill-rule="evenodd" clip-rule="evenodd" d="M358.164 358.472C390.659 358.471 417 332.672 417 300.849C417 269.024 390.657 243.225 358.162 243.225C349.728 243.225 341.708 244.963 334.456 248.093C327.435 226.022 306.408 210 281.561 210C250.968 210 226.168 234.288 226.168 264.25C226.168 266.919 226.365 269.544 226.745 272.11C204.904 274.769 188 293.014 188 315.125C188 339.065 207.816 358.472 232.261 358.472C232.353 358.472 232.445 358.472 232.536 358.472V358.473H358.164V358.472Z" fill="#51CBFF"/>
<path opacity="0.6" d="M174 303L90 303" stroke="url(#paint2_linear_3812_1149)" stroke-width="3.06178" stroke-linecap="round" stroke-dasharray="4.96 8.27"/>
<path opacity="0.6" d="M208.397 218.397L149 159" stroke="url(#paint3_linear_3812_1149)" stroke-width="3.06178" stroke-linecap="round" stroke-dasharray="4.96 8.27"/>
<path opacity="0.6" d="M302 181L302 97" stroke="url(#paint4_linear_3812_1149)" stroke-width="3.06178" stroke-linecap="round" stroke-dasharray="4.96 8.27"/>
<path opacity="0.6" d="M303 391L303 475" stroke="url(#paint5_linear_3812_1149)" stroke-width="3.06178" stroke-linecap="round" stroke-dasharray="4.96 8.27"/>
<path opacity="0.6" d="M203.397 369L144 428.397" stroke="url(#paint6_linear_3812_1149)" stroke-width="3.06178" stroke-linecap="round" stroke-dasharray="4.96 8.27"/>
<path opacity="0.6" d="M396 218.397L455.397 159" stroke="url(#paint7_linear_3812_1149)" stroke-width="3.06178" stroke-linecap="round" stroke-dasharray="4.96 8.27"/>
<path opacity="0.6" d="M408 369L467.397 428.397" stroke="url(#paint8_linear_3812_1149)" stroke-width="3.06178" stroke-linecap="round" stroke-dasharray="4.96 8.27"/>
<path opacity="0.6" d="M431 303L515 303" stroke="url(#paint9_linear_3812_1149)" stroke-width="3.06178" stroke-linecap="round" stroke-dasharray="4.96 8.27"/>
<circle cx="108.5" cy="121.5" r="37.5" fill="#51CBFF"/>
<path d="M85.531 124.375V120.679L100.312 114.17V118.422L90.1922 122.485L90.3287 122.265V122.789L90.1922 122.569L100.312 126.632V130.884L85.531 124.375ZM114.117 108.617L107.189 134.358H103.336L110.265 108.617H114.117ZM131.925 124.375L117.144 130.884V126.632L127.264 122.569L127.127 122.789V122.265L127.264 122.485L117.144 118.422V114.17L131.925 120.679V124.375Z" fill="#0B1641"/>
<circle cx="41.5" cy="303.5" r="37.5" fill="#51CBFF"/>
<path d="M58 310.366L57.9988 310.365C57.9967 307.964 50.3868 306.018 40.9999 306.018C31.6117 306.018 24.001 307.964 24.001 310.366L41.5 310.5L58 310.366Z" fill="#F4F6FC"/>
<path d="M24 310.364L24.0012 310.365C24.0033 312.766 31.6132 314.713 41.0001 314.713C50.3882 314.713 57.999 312.766 57.999 310.364L41.5 310.5L24 310.364Z" fill="#F4F6FC"/>
<path d="M58 298.692L57.9988 298.691C57.9967 296.29 50.3868 294.343 40.9999 294.343C31.6117 294.343 24.001 296.29 24.001 298.692L40.9999 298.5L58 298.692Z" fill="#F4F6FC"/>
<path d="M24 298.69C24 298.691 24.0009 298.691 24.0012 298.691C24.0033 301.092 31.6132 303.039 41.0001 303.039C50.3882 303.039 57.999 301.092 57.999 298.69L40.2994 298.431L24 298.69Z" fill="#F4F6FC"/>
<path d="M57.999 310.452V318.108C57.999 319.465 55.57 320.675 51.7667 321.472C48.8336 322.086 45.0868 322.455 40.9982 322.455C38.456 322.455 36.0442 322.312 33.8808 322.057C28.0491 321.368 24 319.859 24 318.108V310.452C24 310.364 24.118 310.33 24.1623 310.408C24.8458 311.672 27.6559 312.764 31.6387 313.437C34.3233 313.889 37.5391 314.155 40.9982 314.155C45.9348 314.155 50.38 313.616 53.4851 312.758C55.7863 312.122 57.3547 311.308 57.8391 310.408C57.881 310.33 57.999 310.364 57.999 310.452Z" fill="url(#paint10_linear_3812_1149)"/>
<path d="M57.9996 298.778V306.436C57.9996 307.833 55.4279 309.074 51.4329 309.868C48.5515 310.441 44.9325 310.783 40.9989 310.783C38.3461 310.783 35.836 310.628 33.5963 310.35C27.917 309.647 24.0007 308.159 24.0007 306.436V298.778C24.0007 298.692 24.1187 298.657 24.163 298.734C24.8908 300.083 28.0426 301.234 32.4581 301.893C34.9683 302.266 37.8866 302.48 40.9991 302.48C45.0066 302.48 48.6895 302.126 51.5929 301.534C54.9218 300.855 57.2302 299.865 57.84 298.734C57.8816 298.657 57.9996 298.692 57.9996 298.778Z" fill="url(#paint11_linear_3812_1149)"/>
<path d="M57.9988 288.347C57.9967 285.946 50.387 284 40.9999 284C31.6116 284 24.001 285.947 24.001 288.349V294.761C24.001 297.163 31.6119 299.108 40.999 299.108C50.389 299.108 58 297.163 58 294.761V288.349C58 288.348 57.9991 288.348 57.9988 288.347Z" fill="url(#paint12_linear_3812_1149)"/>
<path d="M58 288.348C58 288.348 58.0001 288.347 58.0001 288.347H57.9988C57.9952 285.946 50.3861 284 41 284C31.6141 284 24.0049 285.946 24.0011 288.347H24.001H24.0011C24.0011 288.347 24.001 288.348 24.001 288.349H24.0024C24.0058 290.749 31.615 292.695 41.0013 292.695C50.3871 292.695 57.9962 290.749 58 288.348H58.0001C58.0001 288.348 58 288.348 58 288.348Z" fill="#F4F6FC"/>
<path d="M51.8014 287.891C51.8014 287.891 51.8016 287.891 51.8016 287.891L51.8007 287.891C51.7985 286.713 46.9635 285.758 40.9995 285.758C35.0356 285.758 30.2006 286.713 30.1982 287.891H30.198L30.1982 287.891C30.1982 287.891 30.198 287.891 30.198 287.891H30.1989C30.2011 289.069 35.0361 290.024 41.0002 290.024C46.964 290.024 51.799 289.069 51.8014 287.891Z" fill="url(#paint13_linear_3812_1149)"/>
<circle cx="498.5" cy="121.5" r="37.5" fill="#51CBFF"/>
<circle cx="303.5" cy="547.5" r="37.5" fill="#51CBFF"/>
<path d="M282.467 547C282.467 544.96 282.764 542.991 283.317 541.133H322.683C323.236 542.991 323.533 544.96 323.533 547C323.533 549.04 323.236 551.009 322.683 552.867H283.317C282.764 551.009 282.467 549.04 282.467 547ZM321.558 538.2H284.442C287.738 531.261 294.811 526.467 303 526.467C311.189 526.467 318.262 531.261 321.558 538.2ZM284.442 555.8H321.558C318.262 562.739 311.189 567.533 303 567.533C294.811 567.533 287.738 562.739 284.442 555.8Z" stroke="#0B1641" stroke-width="2.93333"/>
<path d="M311.819 547C311.819 552.91 310.698 558.189 308.95 561.936C307.146 565.802 304.946 567.533 303.019 567.533C301.093 567.533 298.893 565.802 297.089 561.936C295.34 558.189 294.219 552.91 294.219 547C294.219 541.09 295.34 535.811 297.089 532.064C298.893 528.198 301.093 526.467 303.019 526.467C304.946 526.467 307.146 528.198 308.95 532.064C310.698 535.811 311.819 541.09 311.819 547Z" stroke="#0B1641" stroke-width="2.93333"/>
<circle cx="108.5" cy="465.5" r="37.5" fill="#51CBFF"/>
<circle cx="510.5" cy="465.5" r="37.5" fill="#51CBFF"/>
<circle cx="303.5" cy="45.5" r="37.5" fill="#51CBFF"/>
<circle cx="566.5" cy="303.5" r="37.5" fill="#51CBFF"/>
<path d="M272.376 292.984H266.777C266.675 292.26 266.466 291.616 266.151 291.054C265.835 290.483 265.43 289.997 264.936 289.597C264.442 289.196 263.871 288.889 263.223 288.676C262.584 288.463 261.889 288.357 261.139 288.357C259.784 288.357 258.604 288.693 257.598 289.366C256.592 290.031 255.813 291.003 255.259 292.281C254.705 293.551 254.428 295.094 254.428 296.909C254.428 298.776 254.705 300.344 255.259 301.614C255.821 302.884 256.605 303.842 257.611 304.49C258.616 305.138 259.78 305.462 261.101 305.462C261.842 305.462 262.528 305.364 263.159 305.168C263.798 304.972 264.365 304.686 264.859 304.311C265.354 303.928 265.763 303.463 266.087 302.918C266.419 302.372 266.649 301.75 266.777 301.051L272.376 301.077C272.232 302.278 271.869 303.438 271.29 304.554C270.719 305.662 269.947 306.655 268.976 307.533C268.013 308.402 266.862 309.092 265.524 309.604C264.195 310.107 262.69 310.358 261.011 310.358C258.676 310.358 256.588 309.83 254.747 308.773C252.915 307.716 251.466 306.186 250.401 304.183C249.344 302.18 248.815 299.756 248.815 296.909C248.815 294.054 249.352 291.625 250.426 289.622C251.5 287.619 252.957 286.094 254.798 285.045C256.639 283.989 258.71 283.46 261.011 283.46C262.528 283.46 263.935 283.673 265.23 284.099C266.534 284.526 267.689 285.148 268.695 285.966C269.7 286.776 270.518 287.768 271.149 288.945C271.788 290.121 272.197 291.467 272.376 292.984ZM299.447 292.984H293.847C293.745 292.26 293.536 291.616 293.221 291.054C292.906 290.483 292.501 289.997 292.006 289.597C291.512 289.196 290.941 288.889 290.293 288.676C289.654 288.463 288.96 288.357 288.21 288.357C286.854 288.357 285.674 288.693 284.668 289.366C283.663 290.031 282.883 291.003 282.329 292.281C281.775 293.551 281.498 295.094 281.498 296.909C281.498 298.776 281.775 300.344 282.329 301.614C282.891 302.884 283.675 303.842 284.681 304.49C285.687 305.138 286.85 305.462 288.171 305.462C288.913 305.462 289.599 305.364 290.229 305.168C290.869 304.972 291.435 304.686 291.93 304.311C292.424 303.928 292.833 303.463 293.157 302.918C293.489 302.372 293.719 301.75 293.847 301.051L299.447 301.077C299.302 302.278 298.94 303.438 298.36 304.554C297.789 305.662 297.018 306.655 296.046 307.533C295.083 308.402 293.933 309.092 292.594 309.604C291.265 310.107 289.761 310.358 288.082 310.358C285.746 310.358 283.658 309.83 281.817 308.773C279.985 307.716 278.536 306.186 277.471 304.183C276.414 302.18 275.886 299.756 275.886 296.909C275.886 294.054 276.423 291.625 277.496 289.622C278.57 287.619 280.028 286.094 281.869 285.045C283.71 283.989 285.781 283.46 288.082 283.46C289.599 283.46 291.005 283.673 292.3 284.099C293.604 284.526 294.759 285.148 295.765 285.966C296.771 286.776 297.589 287.768 298.219 288.945C298.859 290.121 299.268 291.467 299.447 292.984ZM303.416 283.818H310.243L317.453 301.409H317.76L324.97 283.818H331.797V310H326.428V292.959H326.21L319.435 309.872H315.778L309.003 292.895H308.786V310H303.416V283.818ZM350.561 291.348C350.458 290.317 350.02 289.516 349.244 288.945C348.468 288.374 347.416 288.088 346.086 288.088C345.183 288.088 344.42 288.216 343.798 288.472C343.176 288.719 342.699 289.064 342.366 289.507C342.042 289.95 341.88 290.453 341.88 291.016C341.863 291.484 341.961 291.893 342.174 292.243C342.396 292.592 342.699 292.895 343.082 293.151C343.466 293.398 343.909 293.615 344.412 293.803C344.914 293.982 345.451 294.135 346.022 294.263L348.375 294.825C349.517 295.081 350.565 295.422 351.52 295.848C352.474 296.274 353.301 296.798 354 297.42C354.699 298.043 355.24 298.776 355.623 299.619C356.015 300.463 356.216 301.43 356.224 302.521C356.216 304.124 355.806 305.513 354.997 306.689C354.196 307.857 353.037 308.764 351.52 309.412C350.011 310.051 348.191 310.371 346.061 310.371C343.947 310.371 342.106 310.047 340.538 309.399C338.978 308.751 337.76 307.793 336.882 306.523C336.012 305.244 335.556 303.663 335.514 301.78H340.87C340.93 302.658 341.181 303.391 341.625 303.979C342.076 304.558 342.677 304.997 343.427 305.295C344.186 305.585 345.042 305.73 345.997 305.73C346.934 305.73 347.748 305.594 348.439 305.321C349.137 305.048 349.679 304.669 350.062 304.183C350.446 303.697 350.637 303.139 350.637 302.509C350.637 301.92 350.463 301.426 350.113 301.026C349.772 300.625 349.27 300.284 348.605 300.003C347.949 299.722 347.143 299.466 346.189 299.236L343.338 298.52C341.13 297.983 339.387 297.143 338.109 296.001C336.831 294.859 336.196 293.321 336.204 291.386C336.196 289.801 336.618 288.416 337.47 287.232C338.331 286.047 339.511 285.122 341.011 284.457C342.511 283.793 344.216 283.46 346.125 283.46C348.068 283.46 349.764 283.793 351.213 284.457C352.67 285.122 353.804 286.047 354.613 287.232C355.423 288.416 355.841 289.788 355.866 291.348H350.561Z" fill="white"/>
<path d="M574.187 301.136H571.883C571.563 299.869 571.061 298.676 570.408 297.582L572.039 295.95C572.267 295.723 572.267 295.356 572.039 295.128L568.194 291.283C567.966 291.055 567.599 291.055 567.372 291.283L565.74 292.914C564.646 292.261 563.453 291.761 562.186 291.439V289.135C562.186 288.813 561.925 288.555 561.606 288.555H556.166C555.844 288.555 555.586 288.815 555.586 289.135V291.439C554.319 291.759 553.126 292.261 552.032 292.914L550.4 291.283C550.173 291.055 549.806 291.055 549.578 291.283L545.728 295.128C545.501 295.356 545.501 295.723 545.728 295.95L547.36 297.582C546.708 298.676 546.206 299.869 545.884 301.136H543.58C543.258 301.136 543 301.397 543 301.716V307.156C543 307.478 543.26 307.736 543.58 307.736H545.884C546.204 309.003 546.706 310.196 547.36 311.29L545.728 312.922C545.501 313.149 545.501 313.516 545.728 313.744L549.574 317.589C549.801 317.817 550.168 317.817 550.395 317.589L552.027 315.958C553.121 316.611 554.315 317.111 555.581 317.433V319.737C555.581 320.059 555.842 320.317 556.162 320.317H561.601C561.923 320.317 562.181 320.057 562.181 319.737V317.433C563.448 317.113 564.642 316.611 565.736 315.958L567.367 317.589C567.595 317.817 567.962 317.817 568.189 317.589L572.035 313.744C572.262 313.516 572.262 313.149 572.035 312.922L570.403 311.29C571.057 310.196 571.556 309.003 571.878 307.736H574.183C574.505 307.736 574.763 307.475 574.763 307.156V301.716C574.77 301.397 574.509 301.136 574.187 301.136ZM558.883 311.525C554.968 311.525 551.795 308.352 551.795 304.437C551.795 300.523 554.968 297.35 558.883 297.35C562.797 297.35 565.97 300.523 565.97 304.437C565.973 308.352 562.797 311.525 558.883 311.525Z" fill="#F4F6FC"/>
<path d="M590.69 294.702H589.463C589.293 294.027 589.025 293.392 588.677 292.81L589.546 291.94C589.667 291.82 589.667 291.623 589.546 291.502L587.498 289.454C587.377 289.333 587.18 289.333 587.06 289.454L586.191 290.323C585.608 289.975 584.971 289.707 584.298 289.537V288.31C584.298 288.14 584.159 288 583.988 288H581.092C580.922 288 580.782 288.137 580.782 288.31V289.537C580.107 289.707 579.472 289.975 578.89 290.323L578.021 289.454C577.9 289.333 577.703 289.333 577.583 289.454L575.534 291.502C575.414 291.623 575.414 291.82 575.534 291.94L576.403 292.81C576.055 293.392 575.788 294.029 575.617 294.702H574.391C574.22 294.702 574.08 294.841 574.08 295.012V297.908C574.08 298.078 574.22 298.218 574.391 298.218H575.617C575.788 298.893 576.055 299.528 576.403 300.11L575.534 300.979C575.414 301.1 575.414 301.297 575.534 301.417L577.583 303.466C577.703 303.587 577.9 303.587 578.021 303.466L578.89 302.597C579.472 302.945 580.109 303.212 580.782 303.383V304.61C580.782 304.78 580.922 304.92 581.092 304.92H583.988C584.159 304.92 584.298 304.78 584.298 304.61V303.383C584.973 303.212 585.608 302.945 586.191 302.597L587.06 303.466C587.18 303.587 587.377 303.587 587.498 303.466L589.546 301.417C589.667 301.297 589.667 301.1 589.546 300.979L588.677 300.11C589.025 299.528 589.293 298.891 589.463 298.218H590.69C590.86 298.218 591 298.078 591 297.908V295.012C591 294.839 590.86 294.702 590.69 294.702ZM582.541 300.233C580.457 300.233 578.767 298.545 578.767 296.459C578.767 294.375 580.455 292.684 582.541 292.684C584.625 292.684 586.316 294.372 586.316 296.459C586.316 298.543 584.625 300.233 582.541 300.233Z" fill="#F4F6FC"/>
<rect x="519.121" y="105.879" width="23.87" height="12.6608" rx="1.16931" transform="rotate(90 519.121 105.879)" fill="#0B1641" stroke="#017EFA" stroke-width="0.241925"/>
<rect opacity="0.7" x="515.459" y="106.806" width="0.416299" height="5.41188" rx="0.208149" transform="rotate(90 515.459 106.806)" fill="#0B1641"/>
<circle opacity="0.7" cx="512.82" cy="127.96" r="0.832597" fill="#F4F6FC"/>
<rect x="501.136" y="105.879" width="30.4826" height="22.2571" rx="1.08866" transform="rotate(90 501.136 105.879)" fill="#0B1641" stroke="#017EFA" stroke-width="0.241925"/>
<rect x="482.381" y="109.063" width="11.4511" height="1.80807" rx="0.904034" fill="white"/>
<rect x="509.15" y="109.94" width="3.38302" height="0.534161" rx="0.26708" fill="white"/>
<rect x="517.695" y="119.176" width="3.38302" height="0.534161" rx="0.26708" transform="rotate(180 517.695 119.176)" fill="white"/>
<rect x="484.798" y="113.284" width="12.0538" height="1.80807" rx="0.904034" fill="#0B1641"/>
<rect x="509.859" y="111.187" width="3.56107" height="0.534161" rx="0.26708" fill="#0B1641"/>
<rect x="516.981" y="117.93" width="3.56107" height="0.534161" rx="0.26708" transform="rotate(180 516.981 117.93)" fill="#0B1641"/>
<rect opacity="0.4" x="482.381" y="117.505" width="7.83496" height="1.80807" rx="0.904034" fill="#F4F6FC"/>
<rect opacity="0.4" x="509.15" y="112.434" width="2.3147" height="0.534161" rx="0.26708" fill="#F4F6FC"/>
<rect opacity="0.4" x="517.695" y="116.684" width="2.3147" height="0.534161" rx="0.26708" transform="rotate(180 517.695 116.684)" fill="#F4F6FC"/>
<circle opacity="0.7" cx="490.073" cy="134.495" r="0.834829" fill="#F4F6FC"/>
<path d="M322.235 58.9524H282.765C281.424 58.9524 280.325 57.9196 280.218 56.606H295.323L295.418 56.6935C296.013 57.2388 296.791 57.5413 297.598 57.5413H302.621H307.193H307.303C308.256 57.5413 309.179 57.2102 309.914 56.606H324.782C324.675 57.9196 323.576 58.9524 322.235 58.9524Z" fill="#0B1641" stroke="url(#paint14_linear_3812_1149)" stroke-width="0.418994"/>
<path d="M285.025 30.2514H319.991C320.546 30.2514 320.996 30.7016 320.996 31.257V55.3416H284.019V31.257C284.019 30.7016 284.469 30.2514 285.025 30.2514Z" fill="#0B1641" stroke="url(#paint15_linear_3812_1149)" stroke-width="0.502793"/>
<rect x="287.879" y="34.3564" width="15.8383" height="1.58383" rx="0.791915" fill="white"/>
<rect x="293.157" y="38.0527" width="15.8383" height="1.58383" rx="0.791915" fill="#51CBFF"/>
<rect x="293.157" y="44.3833" width="12.1427" height="1.58383" rx="0.791915" fill="#51CBFF"/>
<rect x="310.056" y="38.0527" width="4.22355" height="1.58383" rx="0.791915" fill="#51CBFF"/>
<rect opacity="0.3" x="287.879" y="41.2188" width="15.8383" height="1.58383" rx="0.791915" fill="white"/>
<rect x="91" y="446" width="26.5282" height="33.2146" fill="url(#paint16_linear_3812_1149)"/>
<rect x="100.472" y="451.407" width="26.5282" height="35.8303" fill="white"/>
<rect x="105.228" y="456.399" width="9.30209" height="8.95756" fill="#51CBFF"/>
<rect x="105.228" y="471.172" width="9.3025" height="1.64162" fill="#51CBFF"/>
<rect x="105.228" y="467.343" width="5.47206" height="2.18882" fill="#FD1F9B"/>
<rect x="105.228" y="473.905" width="9.3025" height="1.64162" fill="#51CBFF"/>
<rect x="492" y="447" width="19.6489" height="11.9297" fill="url(#paint17_linear_3812_1149)"/>
<rect x="494.11" y="449.107" width="5.61396" height="2.10523" fill="white"/>
<rect x="492" y="461.947" width="42.1047" height="21.0524" fill="url(#paint18_linear_3812_1149)"/>
<rect x="495.507" y="465.457" width="9.82443" height="2.80698" fill="white"/>
<rect x="495.507" y="469.67" width="5.61396" height="2.80698" fill="#51CBFF"/>
<defs>
<linearGradient id="paint0_linear_3812_1149" x1="102.316" y1="275.413" x2="459.452" y2="275.413" gradientUnits="userSpaceOnUse">
<stop stop-color="#017EFA"/>
<stop offset="1" stop-color="#017EFA" stop-opacity="0"/>
</linearGradient>
<linearGradient id="paint1_linear_3812_1149" x1="0.000129581" y1="261.812" x2="533.855" y2="261.812" gradientUnits="userSpaceOnUse">
<stop stop-color="#017EFA"/>
<stop offset="1" stop-color="#017EFA" stop-opacity="0"/>
</linearGradient>
<linearGradient id="paint2_linear_3812_1149" x1="175.355" y1="364.456" x2="65.2066" y2="317.58" gradientUnits="userSpaceOnUse">
<stop stop-color="#0B1641"/>
<stop offset="1" stop-color="#0B1641" stop-opacity="0"/>
</linearGradient>
<linearGradient id="paint3_linear_3812_1149" x1="165.899" y1="262.811" x2="121.159" y2="151.778" gradientUnits="userSpaceOnUse">
<stop stop-color="#0B1641"/>
<stop offset="1" stop-color="#0B1641" stop-opacity="0"/>
</linearGradient>
<linearGradient id="paint4_linear_3812_1149" x1="240.544" y1="182.355" x2="287.42" y2="72.2066" gradientUnits="userSpaceOnUse">
<stop stop-color="#0B1641"/>
<stop offset="1" stop-color="#0B1641" stop-opacity="0"/>
</linearGradient>
<linearGradient id="paint5_linear_3812_1149" x1="241.544" y1="389.645" x2="288.42" y2="499.793" gradientUnits="userSpaceOnUse">
<stop stop-color="#0B1641"/>
<stop offset="1" stop-color="#0B1641" stop-opacity="0"/>
</linearGradient>
<linearGradient id="paint6_linear_3812_1149" x1="160.899" y1="324.586" x2="116.159" y2="435.619" gradientUnits="userSpaceOnUse">
<stop stop-color="#0B1641"/>
<stop offset="1" stop-color="#0B1641" stop-opacity="0"/>
</linearGradient>
<linearGradient id="paint7_linear_3812_1149" x1="438.498" y1="262.811" x2="483.238" y2="151.778" gradientUnits="userSpaceOnUse">
<stop stop-color="#0B1641"/>
<stop offset="1" stop-color="#0B1641" stop-opacity="0"/>
</linearGradient>
<linearGradient id="paint8_linear_3812_1149" x1="450.498" y1="324.586" x2="495.238" y2="435.619" gradientUnits="userSpaceOnUse">
<stop stop-color="#0B1641"/>
<stop offset="1" stop-color="#0B1641" stop-opacity="0"/>
</linearGradient>
<linearGradient id="paint9_linear_3812_1149" x1="429.645" y1="364.456" x2="539.793" y2="317.58" gradientUnits="userSpaceOnUse">
<stop stop-color="#0B1641"/>
<stop offset="1" stop-color="#0B1641" stop-opacity="0"/>
</linearGradient>
<linearGradient id="paint10_linear_3812_1149" x1="24" y1="312.5" x2="45" y2="316" gradientUnits="userSpaceOnUse">
<stop stop-color="#FD1F9B"/>
<stop offset="1" stop-color="#382D71"/>
</linearGradient>
<linearGradient id="paint11_linear_3812_1149" x1="24.0001" y1="299" x2="48.5001" y2="303.5" gradientUnits="userSpaceOnUse">
<stop stop-color="#FD1F9B"/>
<stop offset="1" stop-color="#382D71"/>
</linearGradient>
<linearGradient id="paint12_linear_3812_1149" x1="24" y1="288.5" x2="48" y2="290" gradientUnits="userSpaceOnUse">
<stop stop-color="#FD1F9B"/>
<stop offset="1" stop-color="#382D71"/>
</linearGradient>
<linearGradient id="paint13_linear_3812_1149" x1="40.9999" y1="286" x2="40.9999" y2="290" gradientUnits="userSpaceOnUse">
<stop stop-color="#FD1F9B"/>
<stop offset="1" stop-color="#8167FF"/>
</linearGradient>
<linearGradient id="paint14_linear_3812_1149" x1="302.542" y1="53.9837" x2="302.542" y2="59.4905" gradientUnits="userSpaceOnUse">
<stop stop-color="#0B1641"/>
<stop offset="1" stop-color="#0E6CDC" stop-opacity="0.35"/>
</linearGradient>
<linearGradient id="paint15_linear_3812_1149" x1="302.549" y1="30" x2="302.549" y2="55.5587" gradientUnits="userSpaceOnUse">
<stop stop-color="#33357F"/>
<stop offset="1" stop-color="#185DC2" stop-opacity="0.58"/>
</linearGradient>
<linearGradient id="paint16_linear_3812_1149" x1="95.19" y1="446" x2="105.463" y2="486.369" gradientUnits="userSpaceOnUse">
<stop stop-color="#34347D"/>
<stop offset="1" stop-color="#0F6BD9"/>
</linearGradient>
<linearGradient id="paint17_linear_3812_1149" x1="511.652" y1="443.37" x2="490.306" y2="462.15" gradientUnits="userSpaceOnUse">
<stop stop-color="#FD1F9B"/>
<stop offset="1" stop-color="#6342FF"/>
</linearGradient>
<linearGradient id="paint18_linear_3812_1149" x1="492" y1="461.947" x2="534.105" y2="483" gradientUnits="userSpaceOnUse">
<stop stop-color="#0D6DDD"/>
<stop offset="1" stop-color="#0B1641"/>
</linearGradient>
</defs>
</svg>
